<svg version="1.1" viewBox="0.0 0.0 600.0 600.0" fill="none" stroke="none" stroke-linecap="square" stroke-miterlimit="10" xmlns:xlink="http://www.w3.org/1999/xlink" xmlns="http://www.w3.org/2000/svg"><clipPath id="p.0"><path d="m0 0l600.0 0l0 600.0l-600.0 0l0 -600.0z" clip-rule="nonzero"/></clipPath><g clip-path="url(#p.0)"><path fill="#000000" fill-opacity="0.0" d="m0 0l600.0 0l0 600.0l-600.0 0z" fill-rule="evenodd"/><path fill="#ff0000" d="m13.016722 296.02676l0 0c0 -159.05801 128.94199 -288.0 288.0 -288.0l0 0c76.382355 0 149.63626 30.342772 203.64676 84.35325c54.010468 54.010468 84.35324 127.264404 84.35324 203.64676l0 0c0 159.05801 -128.94199 287.99997 -288.0 287.99997l0 0c-159.05801 0 -288.0 -128.94196 -288.0 -287.99997z" fill-rule="evenodd"/><g filter="url(#shadowFilter-p.1)"><use xlink:href="#p.1" transform="matrix(1.0 0.0 0.0 1.0 0.0 11.0)"/></g><defs><filter id="shadowFilter-p.1" filterUnits="userSpaceOnUse"><feGaussianBlur in="SourceAlpha" stdDeviation="2.0" result="blur"/><feComponentTransfer in="blur" color-interpolation-filters="sRGB"><feFuncR type="linear" slope="0" intercept="0.0"/><feFuncG type="linear" slope="0" intercept="0.0"/><feFuncB type="linear" slope="0" intercept="0.0"/><feFuncA type="linear" slope="0.5" intercept="0"/></feComponentTransfer></filter></defs><g id="p.1"><path fill="#ffffff" d="m13.016722 296.02676l0 0c0 -159.05801 128.94199 -288.0 288.0 -288.0l0 0c76.382355 0 149.63626 30.342772 203.64676 84.35325c54.010468 54.010468 84.35324 127.264404 84.35324 203.64676l0 0c0 159.05801 -128.94199 287.99997 -288.0 287.99997l0 0c-159.05801 0 -288.0 -128.94196 -288.0 -287.99997zm45.12384 0l0 0c0 134.13678 108.739365 242.87613 242.87616 242.87613c134.13681 0 242.87616 -108.73935 242.87616 -242.87613l0 0c0 -134.13681 -108.73935 -242.87616 -242.87616 -242.87616l0 0c-134.1368 0 -242.87616 108.73936 -242.87616 242.87616z" fill-rule="evenodd"/></g><g filter="url(#shadowFilter-p.2)"><use xlink:href="#p.2" transform="matrix(1.0 0.0 0.0 1.0 -2.671325984251978 13.74278083989495)"/></g><defs><filter id="shadowFilter-p.2" filterUnits="userSpaceOnUse"><feGaussianBlur in="SourceAlpha" stdDeviation="2.0" result="blur"/><feComponentTransfer in="blur" color-interpolation-filters="sRGB"><feFuncR type="linear" slope="0" intercept="0.0"/><feFuncG type="linear" slope="0" intercept="0.0"/><feFuncB type="linear" slope="0" intercept="0.0"/><feFuncA type="linear" slope="0.55" intercept="0"/></feComponentTransfer></filter></defs><g id="p.2"><path fill="#000000" fill-opacity="0.0" d="m-92.400604 190.60944l498.83466 -288.0l287.99997 498.83466l-498.83463 288.0z" fill-rule="evenodd"/><path fill="#ffffff" d="m169.47493 399.4789l22.029556 -12.718689q12.070251 -6.968689 19.820892 -16.04425q7.7506256 -9.075531 11.073669 -19.257385q3.2908325 -10.018921 2.1256409 -20.56842q-1.1594849 -10.570862 -6.901642 -20.516632q-6.1483917 -10.649414 -14.895111 -17.236755q-8.73317 -6.5951233 -19.172394 -8.957672q-10.479263 -2.2131653 -22.23767 -0.07937622q-11.766235 2.1202698 -23.836487 9.088989l-50.54081 29.179504l85.31199 147.76587l28.51123 -16.460846l-31.288864 -54.194336zm-13.359299 -23.13916l-27.30452 -47.293213l22.029556 -12.718658q6.089264 -3.515625 11.67189 -4.1586914q5.574829 -0.6566162 10.549133 0.9279175q4.8738556 1.660553 8.92691 5.2744446q4.05307 3.6138916 7.03743 8.7829895q2.5781097 4.465454 3.4781342 9.430634q0.9000397 4.9651794 -0.22384644 9.799835q-1.2243195 4.910675 -4.6351013 9.315582q-3.4107666 4.4048767 -9.500015 7.920471l-22.029572 12.718689zm157.2984 -61.31662l59.682404 39.154633l30.540985 -17.63269l-0.765625 -1.3261108l-66.96954 -42.65143q4.5033264 -6.2625427 7.251251 -12.846741q2.7536926 -6.60553 3.382843 -13.734589q0.58340454 -6.9582825 -1.2132568 -14.382767q-1.7831421 -7.4322815 -6.353424 -15.348312q-6.3280945 -10.960663 -14.93515 -17.087341q-8.607056 -6.1266785 -18.835205 -7.6548767q-10.330658 -1.4870453 -21.94049 1.3728638q-11.617645 2.8463745 -23.8909 9.932266l-49.52591 28.593582l85.31198 147.76587l28.51123 -16.460846l-31.874786 -55.20923l21.623596 -12.484283zm-34.98291 -10.654877l-26.718582 -46.27832l21.014694 -12.132736q5.886261 -3.3984222 11.266754 -4.610382q5.3940125 -1.2197876 10.056793 -0.39360046q5.25412 0.8816986 9.636139 4.3778534q4.382019 3.4961395 7.780426 9.382416q2.8124695 4.871414 3.7348328 9.625229q0.9145508 4.740326 -0.08352661 9.105408q-1.1060181 5.3656006 -5.040344 10.144928q-3.9343262 4.779297 -10.537781 8.591797l-21.109406 12.187408zm208.17203 -99.76347l-12.421783 -21.515366q-5.7968445 -10.040497 -12.833984 -17.885468q-7.0371094 -7.8449707 -14.918335 -13.308197q-7.0600586 -4.72847 -14.743683 -7.5994415q-7.6836243 -2.8709564 -15.891174 -3.2743835q-8.338287 -0.59858704 -17.052032 1.5274811q-8.713745 2.1260529 -17.238708 7.0478973q-8.430237 4.867157 -14.408234 11.169205q-5.9723206 6.2807007 -9.469086 13.567871q-3.5425415 7.4579163 -4.7809143 15.75058q-1.2383423 8.292664 -0.33084106 17.114548q1.0258179 9.276825 4.3869324 18.973495q3.361084 9.696671 8.986053 19.439484l12.421814 21.51535q5.273407 9.133881 11.498322 16.509583q6.217102 7.3621826 13.105621 12.730957q7.5299377 5.792328 15.690521 9.145691q8.1528015 3.3398132 16.5 4.203888q8.338257 0.5985718 16.934418 -1.3874207q8.596161 -1.9859924 17.21582 -6.9625244q8.119019 -4.6874695 14.020599 -10.746918q5.9229126 -6.0537415 9.762329 -12.997437q4.1514587 -7.8094788 5.7102356 -16.8284q1.5587769 -9.018936 0.7906189 -18.318207q-0.97109985 -9.182098 -4.2056885 -18.753357q-3.2210388 -9.579086 -8.728821 -19.118912zm-41.469696 -5.0153046l12.538971 21.718323q3.1640625 5.4803314 5.53891 10.8750305q2.374878 5.394684 3.712677 10.305588q1.7432251 6.300644 1.8538208 11.992233q0.1105957 5.6915894 -1.6993713 10.525421q-1.4031982 3.913391 -4.2588806 7.185913q-2.8421936 3.2647095 -7.1046753 5.7256165q-4.465454 2.578125 -8.727966 3.288971q-4.256775 0.68951416 -8.409943 -0.1602478q-4.514496 -1.0381165 -9.253479 -4.1838074q-4.7332764 -3.1670532 -8.9444275 -7.898529q-3.4757996 -3.6765442 -6.748932 -8.408295q-3.2809143 -4.74527 -6.3902893 -10.130875l-12.538971 -21.718338q-3.2812195 -5.683304 -5.819031 -11.110214q-2.5321045 -5.4482574 -4.032837 -10.391388q-1.9551392 -6.448929 -2.0344849 -12.086395q-0.0793457 -5.6374664 1.7306213 -10.471298q1.4267883 -3.4037628 4.0343018 -6.262375q2.607544 -2.858612 6.5723267 -5.1476746q4.154236 -2.3984222 8.199127 -3.236206q4.050598 -0.8591461 7.9558716 -0.40751648q5.036499 0.75476074 10.059082 3.6104279q5.0283203 2.8343353 9.721436 7.4318542q3.741272 3.6676178 7.2569885 8.475815q3.507904 4.7946625 6.789154 10.477966z" fill-rule="nonzero"/></g><path fill="#2196f3" d="m-112.38845 46.952755l53.41732 0l0 53.417324l-53.41732 0z" fill-rule="evenodd"/><path fill="#9c27b0" d="m-112.38845 114.703415l53.41732 0l0 53.417313l-53.41732 0z" fill-rule="evenodd"/><path fill="#f1c232" d="m-112.38845 182.45407l53.41732 0l0 53.417313l-53.41732 0z" fill-rule="evenodd"/><path fill="#cc0000" d="m-112.38845 250.20473l53.41732 0l0 53.417313l-53.41732 0z" fill-rule="evenodd"/><path fill="#6aa84f" d="m-112.38845 317.95538l53.41732 0l0 53.417328l-53.41732 0z" fill-rule="evenodd"/><path fill="#2f4f4f" d="m-112.38845 385.70602l53.41732 0l0 53.417328l-53.41732 0z" fill-rule="evenodd"/></g></svg>