<svg version="1.1" viewBox="0.0 0.0 600.0 600.0" fill="none" stroke="none" stroke-linecap="square" stroke-miterlimit="10" xmlns:xlink="http://www.w3.org/1999/xlink" xmlns="http://www.w3.org/2000/svg"><clipPath id="p.0"><path d="m0 0l600.0 0l0 600.0l-600.0 0l0 -600.0z" clip-rule="nonzero"/></clipPath><g clip-path="url(#p.0)"><path fill="#000000" fill-opacity="0.0" d="m0 0l600.0 0l0 600.0l-600.0 0z" fill-rule="evenodd"/><path fill="#475969" d="m13.016722 296.02676l0 0c0 -159.05801 128.94199 -288.0 288.0 -288.0l0 0c76.382355 0 149.63626 30.342772 203.64676 84.35325c54.010468 54.010468 84.35324 127.264404 84.35324 203.64676l0 0c0 159.05801 -128.94199 287.99997 -288.0 287.99997l0 0c-159.05801 0 -288.0 -128.94196 -288.0 -287.99997z" fill-rule="evenodd"/><g filter="url(#shadowFilter-p.1)"><use xlink:href="#p.1" transform="matrix(1.0 0.0 0.0 1.0 0.0 11.0)"/></g><defs><filter id="shadowFilter-p.1" filterUnits="userSpaceOnUse"><feGaussianBlur in="SourceAlpha" stdDeviation="2.0" result="blur"/><feComponentTransfer in="blur" color-interpolation-filters="sRGB"><feFuncR type="linear" slope="0" intercept="0.0"/><feFuncG type="linear" slope="0" intercept="0.0"/><feFuncB type="linear" slope="0" intercept="0.0"/><feFuncA type="linear" slope="0.5" intercept="0"/></feComponentTransfer></filter></defs><g id="p.1"><path fill="#ffffff" d="m13.016722 296.02676l0 0c0 -159.05801 128.94199 -288.0 288.0 -288.0l0 0c76.382355 0 149.63626 30.342772 203.64676 84.35325c54.010468 54.010468 84.35324 127.264404 84.35324 203.64676l0 0c0 159.05801 -128.94199 287.99997 -288.0 287.99997l0 0c-159.05801 0 -288.0 -128.94196 -288.0 -287.99997zm45.12384 0l0 0c0 134.13678 108.739365 242.87613 242.87616 242.87613c134.13681 0 242.87616 -108.73935 242.87616 -242.87613l0 0c0 -134.13681 -108.73935 -242.87616 -242.87616 -242.87616l0 0c-134.1368 0 -242.87616 108.73936 -242.87616 242.87616z" fill-rule="evenodd"/></g><g filter="url(#shadowFilter-p.2)"><use xlink:href="#p.2" transform="matrix(1.0 0.0 0.0 1.0 -2.671325984251978 13.74278083989495)"/></g><defs><filter id="shadowFilter-p.2" filterUnits="userSpaceOnUse"><feGaussianBlur in="SourceAlpha" stdDeviation="2.0" result="blur"/><feComponentTransfer in="blur" color-interpolation-filters="sRGB"><feFuncR type="linear" slope="0" intercept="0.0"/><feFuncG type="linear" slope="0" intercept="0.0"/><feFuncB type="linear" slope="0" intercept="0.0"/><feFuncA type="linear" slope="0.55" intercept="0"/></feComponentTransfer></filter></defs><g id="p.2"><path fill="#000000" fill-opacity="0.0" d="m-92.400604 190.60944l498.83466 -288.0l287.99997 498.83466l-498.83463 288.0z" fill-rule="evenodd"/><path fill="#ffffff" d="m169.81686 471.54034l39.674866 -22.906128q9.851059 -5.687439 17.118622 -13.130951q7.267563 -7.4434814 11.83934 -16.181213q3.9574127 -7.426819 5.8218536 -16.13507q1.8701477 -8.729614 1.7970123 -17.762573q-0.33110046 -9.948547 -3.3717804 -20.37149q-3.04068 -10.422913 -8.962509 -20.679932l-7.0312195 -12.178497q-6.1483917 -10.649445 -13.97525 -18.706024q-7.834671 -8.070129 -16.720993 -13.368011q-7.4357452 -4.2229004 -15.602325 -6.742859q-8.160858 -2.5413208 -16.711853 -2.6021118q-9.947723 -0.35498047 -20.308304 2.3249512q-10.368393 2.6663818 -20.625404 8.588226l-38.254044 22.085785l85.31199 147.7659zm-43.23848 -141.20474l9.539825 -5.507782q5.1826324 -2.992157 10.265839 -4.375305q5.083191 -1.3831482 9.971115 -1.3544922q6.4172974 0.083862305 12.594818 2.4711914q6.177536 2.387329 11.691498 6.7815857q4.5767517 3.7084656 8.849991 8.891205q4.2867584 5.1749573 7.974243 11.56189l7.1483917 12.3815q3.929657 6.806427 6.3225403 13.20108q2.4064178 6.3868103 3.3374481 12.218201q0.93130493 6.7693787 0.20755005 12.672058q-0.7180481 5.881317 -3.0511475 10.7465515q-2.2930756 4.7158203 -6.1011505 8.682526q-3.8023682 3.9453735 -9.079727 6.992218l-10.960648 6.3280945l-58.710587 -101.69052zm235.29655 -53.719543l-12.421783 -21.51535q-5.7968445 -10.040512 -12.833984 -17.885483q-7.0371094 -7.8449707 -14.918335 -13.308182q-7.0600586 -4.72847 -14.743683 -7.5994415q-7.6836243 -2.8709717 -15.891174 -3.2743988q-8.338257 -0.5985718 -17.052032 1.5274811q-8.713745 2.126068 -17.238708 7.0479126q-8.430237 4.867157 -14.408249 11.169189q-5.97229 6.2807007 -9.469086 13.567871q-3.5425415 7.4579163 -4.780884 15.750595q-1.2383575 8.292664 -0.33084106 17.114532q1.0258026 9.276825 4.386902 18.97351q3.3611145 9.696655 8.986069 19.439484l12.421814 21.51535q5.273407 9.133881 11.498322 16.509583q6.217102 7.362152 13.105621 12.730957q7.5299377 5.7922974 15.690521 9.14566q8.1528015 3.3398438 16.5 4.2039185q8.338257 0.5985718 16.934418 -1.3874207q8.596161 -1.9859924 17.21585 -6.9625244q8.118988 -4.6874695 14.020569 -10.746918q5.9229126 -6.0537415 9.762329 -12.997437q4.1514587 -7.8094788 5.7102356 -16.82843q1.5587769 -9.018921 0.7906189 -18.318176q-0.97109985 -9.182098 -4.2056885 -18.753357q-3.2210388 -9.579102 -8.728821 -19.118927zm-41.469696 -5.0152893l12.538971 21.718323q3.1640625 5.480316 5.5389404 10.8750305q2.3748474 5.394684 3.7126465 10.3055725q1.7432251 6.300659 1.8538208 11.992249q0.1105957 5.6915894 -1.6993713 10.525421q-1.4031677 3.9133606 -4.2588806 7.185913q-2.8421936 3.2647095 -7.1046753 5.7256165q-4.465454 2.578125 -8.727966 3.288971q-4.256775 0.68951416 -8.409943 -0.16027832q-4.514496 -1.0380859 -9.253479 -4.1838074q-4.7332764 -3.1670532 -8.9444275 -7.8984985q-3.4757996 -3.6765442 -6.7489014 -8.408295q-3.2809448 -4.74527 -6.3902893 -10.13089l-12.539001 -21.718323q-3.2812195 -5.683319 -5.819031 -11.1102295q-2.5321045 -5.448242 -4.032837 -10.391388q-1.9551392 -6.4489136 -2.0344849 -12.086395q-0.0793457 -5.637451 1.7306213 -10.471283q1.4267883 -3.403778 4.0343323 -6.26239q2.6075134 -2.858612 6.572296 -5.1476593q4.154236 -2.3984222 8.199127 -3.2362213q4.050598 -0.8591461 7.9558716 -0.40750122q5.036499 0.7547455 10.059082 3.6104279q5.0283203 2.8343353 9.721436 7.4318542q3.741272 3.6676178 7.2569885 8.475815q3.507904 4.794647 6.789154 10.477966zm112.60791 -149.03604l-28.321808 16.351463l56.444 97.98341q4.055786 7.274887 5.799011 13.575516q1.7432251 6.3006287 1.0109253 11.594818q-0.5918274 5.0687256 -3.5659485 9.167389q-2.9819336 4.0851135 -8.164581 7.077301q-4.763153 2.7499695 -9.385437 3.181427q-4.622284 0.431427 -9.095917 -1.4421692q-4.8427734 -2.0754395 -9.441742 -6.853607q-4.593231 -4.79953 -8.969177 -12.160187l-56.646973 -97.86624l-28.51123 16.460846l56.43045 97.99121q7.148407 12.3815 16.254639 20.060272q9.098419 7.6652527 19.29004 10.5677185q10.212952 2.9081726 21.176636 1.1790771q10.977203 -1.7368774 22.140839 -8.182159q11.880798 -6.8593445 19.171356 -15.6692505q7.290558 -8.809937 9.918579 -19.258087q2.5880127 -10.298737 0.42199707 -21.894226q-2.1738281 -11.609009 -9.322235 -23.990479l-56.633423 -97.87405z" fill-rule="nonzero"/></g><path fill="#2196f3" d="m-112.38845 46.952755l53.41732 0l0 53.417324l-53.41732 0z" fill-rule="evenodd"/><path fill="#9c27b0" d="m-112.38845 114.703415l53.41732 0l0 53.417313l-53.41732 0z" fill-rule="evenodd"/><path fill="#f1c232" d="m-112.38845 182.45407l53.41732 0l0 53.417313l-53.41732 0z" fill-rule="evenodd"/><path fill="#cc0000" d="m-112.38845 250.20473l53.41732 0l0 53.417313l-53.41732 0z" fill-rule="evenodd"/><path fill="#6aa84f" d="m-112.38845 317.95538l53.41732 0l0 53.417328l-53.41732 0z" fill-rule="evenodd"/><path fill="#2f4f4f" d="m-112.38845 385.70602l53.41732 0l0 53.417328l-53.41732 0z" fill-rule="evenodd"/></g></svg>