<svg version="1.1" viewBox="0.0 0.0 600.0 600.0" fill="none" stroke="none" stroke-linecap="square" stroke-miterlimit="10" xmlns:xlink="http://www.w3.org/1999/xlink" xmlns="http://www.w3.org/2000/svg"><clipPath id="p.0"><path d="m0 0l600.0 0l0 600.0l-600.0 0l0 -600.0z" clip-rule="nonzero"/></clipPath><g clip-path="url(#p.0)"><path fill="#000000" fill-opacity="0.0" d="m0 0l600.0 0l0 600.0l-600.0 0z" fill-rule="evenodd"/><path fill="#ff9800" d="m13.016722 296.02676l0 0c0 -159.05801 128.94199 -288.0 288.0 -288.0l0 0c76.382355 0 149.63626 30.342772 203.64676 84.35325c54.010468 54.010468 84.35324 127.264404 84.35324 203.64676l0 0c0 159.05801 -128.94199 287.99997 -288.0 287.99997l0 0c-159.05801 0 -288.0 -128.94196 -288.0 -287.99997z" fill-rule="evenodd"/><g filter="url(#shadowFilter-p.1)"><use xlink:href="#p.1" transform="matrix(1.0 0.0 0.0 1.0 0.0 11.0)"/></g><defs><filter id="shadowFilter-p.1" filterUnits="userSpaceOnUse"><feGaussianBlur in="SourceAlpha" stdDeviation="2.0" result="blur"/><feComponentTransfer in="blur" color-interpolation-filters="sRGB"><feFuncR type="linear" slope="0" intercept="0.0"/><feFuncG type="linear" slope="0" intercept="0.0"/><feFuncB type="linear" slope="0" intercept="0.0"/><feFuncA type="linear" slope="0.5" intercept="0"/></feComponentTransfer></filter></defs><g id="p.1"><path fill="#ffffff" d="m13.016722 296.02676l0 0c0 -159.05801 128.94199 -288.0 288.0 -288.0l0 0c76.382355 0 149.63626 30.342772 203.64676 84.35325c54.010468 54.010468 84.35324 127.264404 84.35324 203.64676l0 0c0 159.05801 -128.94199 287.99997 -288.0 287.99997l0 0c-159.05801 0 -288.0 -128.94196 -288.0 -287.99997zm45.12384 0l0 0c0 134.13678 108.739365 242.87613 242.87616 242.87613c134.13681 0 242.87616 -108.73935 242.87616 -242.87613l0 0c0 -134.13681 -108.73935 -242.87616 -242.87616 -242.87616l0 0c-134.1368 0 -242.87616 108.73936 -242.87616 242.87616z" fill-rule="evenodd"/></g><g filter="url(#shadowFilter-p.2)"><use xlink:href="#p.2" transform="matrix(1.0 0.0 0.0 1.0 -2.671325984251978 13.74278083989495)"/></g><defs><filter id="shadowFilter-p.2" filterUnits="userSpaceOnUse"><feGaussianBlur in="SourceAlpha" stdDeviation="2.0" result="blur"/><feComponentTransfer in="blur" color-interpolation-filters="sRGB"><feFuncR type="linear" slope="0" intercept="0.0"/><feFuncG type="linear" slope="0" intercept="0.0"/><feFuncB type="linear" slope="0" intercept="0.0"/><feFuncA type="linear" slope="0.55" intercept="0"/></feComponentTransfer></filter></defs><g id="p.2"><path fill="#000000" fill-opacity="0.0" d="m-92.400604 190.60944l498.83466 -288.0l287.99997 498.83466l-498.83463 288.0z" fill-rule="evenodd"/><path fill="#ffffff" d="m246.30435 365.67645l-28.511246 16.460815q3.4612274 6.932556 4.3922424 12.763916q0.9232025 5.8178406 -0.47187805 10.68277q-1.381546 4.8571167 -5.0266876 8.856049q-3.6451416 3.998932 -9.233719 7.225464q-4.154236 2.3984375 -8.1188965 3.406433q-3.9589386 0.9866333 -7.864212 0.53500366q-3.5986328 -0.35803223 -7.1523743 -1.9508057q-3.561554 -1.6063232 -7.029236 -4.3313293q-5.021927 -4.010742 -10.003998 -10.390015q-4.976349 -6.4005737 -10.077881 -15.236755l-11.601486 -20.094543q-3.7499847 -6.4952087 -6.391037 -12.475952q-2.6410522 -5.9807434 -4.010254 -11.414764q-1.7423859 -6.986725 -1.4481506 -13.164642q0.28640747 -6.191437 3.0343933 -11.025574q1.6154022 -2.827057 4.1049347 -5.2025757q2.4817047 -2.389038 5.8240356 -4.3187256q6.292221 -3.632782 11.780548 -4.564209q5.4805145 -0.9449768 10.400131 0.5448303q4.8738556 1.660553 9.318512 5.7339783q4.4503784 4.052063 8.6609955 10.407623l28.41652 -16.406158q-7.694519 -10.983643 -16.87915 -17.985718q-9.192429 -7.015564 -19.57808 -9.53537q-10.393478 -2.5332947 -21.884888 -0.49954224q-11.477875 2.02594 -23.656387 9.057159q-8.213722 4.742157 -14.168861 10.958832q-5.955139 6.216675 -9.709587 13.526306q-4.065384 8.427338 -5.530258 18.077637q-1.4726868 9.63678 0.14686584 19.942017q1.1427002 8.541748 4.3780975 17.42694q3.2353973 8.885193 8.391617 17.816101l11.484299 19.89154q5.507782 9.539825 11.999298 17.158539q6.4915314 7.6187134 13.542969 13.019745q7.146164 5.3463135 14.955902 8.68573q7.8097534 3.3394165 15.899292 4.225952q8.775604 0.8873596 17.912064 -1.1940918q9.142166 -2.1027527 18.276047 -7.3761597q11.56958 -6.679657 19.148499 -15.583893q7.5710907 -8.917755 10.839447 -19.194336q3.2683716 -10.276581 2.225769 -21.582458q-1.0425873 -11.305908 -6.78421 -22.875763zm102.3999 -83.74771l-13.007721 -22.530212l-60.689575 35.03885l-21.507675 -37.252716l70.63533 -40.781006l-13.413971 -23.233871l-99.25484 57.304337l85.312 147.76587l99.55252 -57.476196l-13.304596 -23.044434l-70.933044 40.95285l-24.077972 -41.70462l60.689545 -35.03885zm84.3089 -159.36401l-28.321808 16.351463l56.444 97.98341q4.055786 7.274887 5.799011 13.575516q1.7432251 6.3006287 1.0109253 11.594818q-0.5918274 5.0687256 -3.5659485 9.167389q-2.9819336 4.0851135 -8.164581 7.077301q-4.763153 2.7499695 -9.385437 3.181427q-4.622284 0.431427 -9.095917 -1.4421692q-4.8427734 -2.0754395 -9.441742 -6.853607q-4.593231 -4.79953 -8.969177 -12.160187l-56.646973 -97.86624l-28.51123 16.460846l56.43045 97.99121q7.148407 12.3815 16.254639 20.060272q9.098419 7.6652527 19.29004 10.5677185q10.212952 2.9081726 21.176636 1.1790771q10.977203 -1.7368774 22.140839 -8.182159q11.880798 -6.8593445 19.171356 -15.6692505q7.290558 -8.809937 9.918579 -19.258087q2.5880127 -10.298737 0.42199707 -21.894226q-2.1738281 -11.609009 -9.322235 -23.990479l-56.633423 -97.87405z" fill-rule="nonzero"/></g><path fill="#2196f3" d="m-112.38845 46.952755l53.41732 0l0 53.417324l-53.41732 0z" fill-rule="evenodd"/><path fill="#9c27b0" d="m-112.38845 114.703415l53.41732 0l0 53.417313l-53.41732 0z" fill-rule="evenodd"/><path fill="#009688" d="m-112.38845 182.45407l53.41732 0l0 53.417313l-53.41732 0z" fill-rule="evenodd"/><path fill="#ff5722" d="m-112.38845 250.20473l53.41732 0l0 53.417313l-53.41732 0z" fill-rule="evenodd"/><path fill="#4caf50" d="m-112.38845 317.95538l53.41732 0l0 53.417328l-53.41732 0z" fill-rule="evenodd"/></g></svg>