<svg version="1.1" viewBox="0.0 0.0 600.0 600.0" fill="none" stroke="none" stroke-linecap="square" stroke-miterlimit="10" xmlns:xlink="http://www.w3.org/1999/xlink" xmlns="http://www.w3.org/2000/svg"><clipPath id="p.0"><path d="m0 0l600.0 0l0 600.0l-600.0 0l0 -600.0z" clip-rule="nonzero"/></clipPath><g clip-path="url(#p.0)"><path fill="#000000" fill-opacity="0.0" d="m0 0l600.0 0l0 600.0l-600.0 0z" fill-rule="evenodd"/><path fill="#4caf50" d="m13.016722 296.02676l0 0c0 -159.05801 128.94199 -288.0 288.0 -288.0l0 0c76.382355 0 149.63626 30.342772 203.64676 84.35325c54.010468 54.010468 84.35324 127.264404 84.35324 203.64676l0 0c0 159.05801 -128.94199 287.99997 -288.0 287.99997l0 0c-159.05801 0 -288.0 -128.94196 -288.0 -287.99997z" fill-rule="evenodd"/><g filter="url(#shadowFilter-p.1)"><use xlink:href="#p.1" transform="matrix(1.0 0.0 0.0 1.0 0.0 11.0)"/></g><defs><filter id="shadowFilter-p.1" filterUnits="userSpaceOnUse"><feGaussianBlur in="SourceAlpha" stdDeviation="2.0" result="blur"/><feComponentTransfer in="blur" color-interpolation-filters="sRGB"><feFuncR type="linear" slope="0" intercept="0.0"/><feFuncG type="linear" slope="0" intercept="0.0"/><feFuncB type="linear" slope="0" intercept="0.0"/><feFuncA type="linear" slope="0.5" intercept="0"/></feComponentTransfer></filter></defs><g id="p.1"><path fill="#ffffff" d="m13.016722 296.02676l0 0c0 -159.05801 128.94199 -288.0 288.0 -288.0l0 0c76.382355 0 149.63626 30.342772 203.64676 84.35325c54.010468 54.010468 84.35324 127.264404 84.35324 203.64676l0 0c0 159.05801 -128.94199 287.99997 -288.0 287.99997l0 0c-159.05801 0 -288.0 -128.94196 -288.0 -287.99997zm45.12384 0l0 0c0 134.13678 108.739365 242.87613 242.87616 242.87613c134.13681 0 242.87616 -108.73935 242.87616 -242.87613l0 0c0 -134.13681 -108.73935 -242.87616 -242.87616 -242.87616l0 0c-134.1368 0 -242.87616 108.73936 -242.87616 242.87616z" fill-rule="evenodd"/></g><g filter="url(#shadowFilter-p.2)"><use xlink:href="#p.2" transform="matrix(1.0 0.0 0.0 1.0 -2.671325984251978 13.74278083989495)"/></g><defs><filter id="shadowFilter-p.2" filterUnits="userSpaceOnUse"><feGaussianBlur in="SourceAlpha" stdDeviation="2.0" result="blur"/><feComponentTransfer in="blur" color-interpolation-filters="sRGB"><feFuncR type="linear" slope="0" intercept="0.0"/><feFuncG type="linear" slope="0" intercept="0.0"/><feFuncB type="linear" slope="0" intercept="0.0"/><feFuncA type="linear" slope="0.55" intercept="0"/></feComponentTransfer></filter></defs><g id="p.2"><path fill="#000000" fill-opacity="0.0" d="m-92.400604 190.60944l498.83466 -288.0l287.99997 498.83466l-498.83463 288.0z" fill-rule="evenodd"/><path fill="#ffffff" d="m262.04718 395.2878l-33.727325 -58.199158l-52.881775 30.531067l12.304611 21.312378l24.465256 -14.124908l15.360413 26.855194q-0.35179138 1.9532166 -1.8642426 4.3960876q-1.5067291 2.4215088 -3.824936 4.96875q-2.3104095 2.5607605 -5.261139 4.9499817q-2.9585419 2.3756409 -6.300873 4.3053284q-5.542816 3.0557861 -10.820358 3.883545q-5.2853394 0.81427 -10.407944 -0.5583496q-3.0386658 -0.8256531 -6.0515594 -2.387909q-3.0071564 -1.5835876 -5.928131 -3.8303528q-4.851166 -3.9650269 -9.724838 -9.937775q-4.8814697 -5.986267 -9.506439 -13.997009l-11.718689 -20.297516q-3.695282 -6.400482 -6.1015625 -12.318298q-2.3927307 -5.9256287 -3.5500183 -11.211395q-1.50914 -6.8327026 -1.1825409 -12.704559q0.32661438 -5.871826 2.2537537 -10.502686q1.5214996 -3.4584656 3.980194 -6.23114q2.4586945 -2.7726746 5.7062836 -4.6476746q5.9945374 -3.460907 11.21167 -4.3620605q5.2228546 -0.92251587 9.876984 0.5762329q4.1845703 1.3728943 8.052231 4.69693q3.8733826 3.3026428 7.6999054 8.2742l27.807602 -16.054596q-7.2793427 -10.014526 -15.800613 -16.461365q-8.521271 -6.4468384 -18.374863 -8.732544q-9.78537 -2.1987915 -20.89412 0.0289917q-11.103027 2.206482 -23.579224 9.409546q-8.119011 4.6874695 -14.137062 11.138947q-6.018051 6.4514465 -9.699944 14.386749q-3.0508041 6.9033813 -4.4152756 14.7276q-1.3644714 7.824188 -0.90784454 16.365143q0.72811127 9.4487 4.0430527 19.65915q3.3206558 10.189117 9.414368 20.743835l11.601494 20.094543q6.3827667 11.055359 13.811493 19.359863q7.4208984 8.290955 15.613342 13.574493q7.2855225 4.868927 15.149643 7.3650513q7.8641357 2.4961243 15.859787 2.7512512q8.041382 0.0843811 16.272049 -2.1596985q8.244186 -2.2518616 16.36319 -6.939331q9.336853 -5.3905945 16.455856 -11.81012q7.126831 -6.406006 12.089676 -13.06012q4.9092712 -6.4969177 7.680237 -12.697479q2.7845154 -6.208374 3.5882263 -11.128815zm86.657074 -113.35907l-13.007721 -22.530212l-60.689575 35.03885l-21.507675 -37.252716l70.63533 -40.781006l-13.413971 -23.233871l-99.25484 57.304337l85.312 147.76587l99.55252 -57.476196l-13.304596 -23.044434l-70.933044 40.95285l-24.077972 -41.70462l60.689545 -35.03885zm168.60599 -11.0121765l-85.31198 -147.7659l-28.619476 16.523338l54.67267 94.946594l-95.57892 -71.32956l-28.714233 16.578033l85.31201 147.76587l28.714203 -16.578003l-55.0231 -95.30359l96.132324 71.569336l28.416504 -16.406128z" fill-rule="nonzero"/></g><path fill="#2196f3" d="m-112.38845 46.952755l53.41732 0l0 53.417324l-53.41732 0z" fill-rule="evenodd"/><path fill="#9c27b0" d="m-112.38845 114.703415l53.41732 0l0 53.417313l-53.41732 0z" fill-rule="evenodd"/><path fill="#009688" d="m-112.38845 182.45407l53.41732 0l0 53.417313l-53.41732 0z" fill-rule="evenodd"/><path fill="#ff5722" d="m-112.38845 250.20473l53.41732 0l0 53.417313l-53.41732 0z" fill-rule="evenodd"/><path fill="#4caf50" d="m-112.38845 317.95538l53.41732 0l0 53.417328l-53.41732 0z" fill-rule="evenodd"/></g></svg>