<svg version="1.1" viewBox="0.0 0.0 600.0 600.0" fill="none" stroke="none" stroke-linecap="square" stroke-miterlimit="10" xmlns:xlink="http://www.w3.org/1999/xlink" xmlns="http://www.w3.org/2000/svg"><clipPath id="p.0"><path d="m0 0l600.0 0l0 600.0l-600.0 0l0 -600.0z" clip-rule="nonzero"/></clipPath><g clip-path="url(#p.0)"><path fill="#000000" fill-opacity="0.0" d="m0 0l600.0 0l0 600.0l-600.0 0z" fill-rule="evenodd"/><path fill="#2196f3" d="m13.016722 296.02676l0 0c0 -159.05801 128.94199 -288.0 288.0 -288.0l0 0c76.382355 0 149.63626 30.342772 203.64676 84.35325c54.010468 54.010468 84.35324 127.264404 84.35324 203.64676l0 0c0 159.05801 -128.94199 287.99997 -288.0 287.99997l0 0c-159.05801 0 -288.0 -128.94196 -288.0 -287.99997z" fill-rule="evenodd"/><g filter="url(#shadowFilter-p.1)"><use xlink:href="#p.1" transform="matrix(1.0 0.0 0.0 1.0 -2.671325984251978 13.74278083989495)"/></g><defs><filter id="shadowFilter-p.1" filterUnits="userSpaceOnUse"><feGaussianBlur in="SourceAlpha" stdDeviation="2.0" result="blur"/><feComponentTransfer in="blur" color-interpolation-filters="sRGB"><feFuncR type="linear" slope="0" intercept="0.0"/><feFuncG type="linear" slope="0" intercept="0.0"/><feFuncB type="linear" slope="0" intercept="0.0"/><feFuncA type="linear" slope="0.55" intercept="0"/></feComponentTransfer></filter></defs><g id="p.1"><path fill="#000000" fill-opacity="0.0" d="m-92.400604 190.60944l498.83466 -288.0l287.99997 498.83466l-498.83463 288.0z" fill-rule="evenodd"/><path fill="#ffffff" d="m187.66217 430.51163l-72.00738 -124.721436l-28.619492 16.523346l85.31199 147.76587l97.833984 -56.48404l-13.304596 -23.044434l-69.21451 39.960693zm106.882904 -30.982574l39.674866 -22.906097q9.851044 -5.6874695 17.118622 -13.130951q7.2675476 -7.4434814 11.839325 -16.181244q3.957428 -7.426819 5.821869 -16.13507q1.8701477 -8.729584 1.7969971 -17.762573q-0.3310852 -9.948547 -3.3717651 -20.37146q-3.04068 -10.422943 -8.962524 -20.679962l-7.031189 -12.178497q-6.148407 -10.649429 -13.975281 -18.706009q-7.834656 -8.070129 -16.720978 -13.368011q-7.4357605 -4.2229004 -15.602325 -6.742874q-8.160858 -2.5413055 -16.711853 -2.6020966q-9.947723 -0.35498047 -20.30832 2.324936q-10.368378 2.666397 -20.625397 8.588226l-38.254044 22.0858l85.312 147.76588zm-43.23848 -141.20474l9.53981 -5.507782q5.1826477 -2.992157 10.265839 -4.375305q5.083191 -1.3831329 9.97113 -1.3544922q6.4172974 0.083862305 12.594818 2.4712067q6.1775513 2.387329 11.691498 6.7815704q4.5767517 3.7084656 8.849976 8.891235q4.2867737 5.1749268 7.974243 11.561859l7.148407 12.3815q3.929657 6.806427 6.3225403 13.20108q2.406433 6.386841 3.3374329 12.218201q0.93133545 6.7693787 0.20755005 12.672058q-0.7180481 5.8813477 -3.0511475 10.7465515q-2.2930603 4.7158203 -6.1011353 8.682526q-3.8023682 3.9453735 -9.079742 6.9922485l-10.960632 6.328064l-58.710587 -101.69052zm222.12587 -48.406845l-13.007721 -22.530228l-60.689575 35.03885l-21.50769 -37.2527l70.635345 -40.781006l-13.413971 -23.233887l-99.25485 57.304337l85.31201 147.7659l99.55252 -57.476227l-13.304626 -23.044449l-70.933014 40.952896l-24.078003 -41.704636l60.689575 -35.03885z" fill-rule="nonzero"/></g><g filter="url(#shadowFilter-p.2)"><use xlink:href="#p.2" transform="matrix(1.0 0.0 0.0 1.0 0.0 11.0)"/></g><defs><filter id="shadowFilter-p.2" filterUnits="userSpaceOnUse"><feGaussianBlur in="SourceAlpha" stdDeviation="2.0" result="blur"/><feComponentTransfer in="blur" color-interpolation-filters="sRGB"><feFuncR type="linear" slope="0" intercept="0.0"/><feFuncG type="linear" slope="0" intercept="0.0"/><feFuncB type="linear" slope="0" intercept="0.0"/><feFuncA type="linear" slope="0.5" intercept="0"/></feComponentTransfer></filter></defs><g id="p.2"><path fill="#ffffff" d="m13.016722 296.02676l0 0c0 -159.05801 128.94199 -288.0 288.0 -288.0l0 0c76.382355 0 149.63626 30.342772 203.64676 84.35325c54.010468 54.010468 84.35324 127.264404 84.35324 203.64676l0 0c0 159.05801 -128.94199 287.99997 -288.0 287.99997l0 0c-159.05801 0 -288.0 -128.94196 -288.0 -287.99997zm45.12384 0l0 0c0 134.13678 108.739365 242.87613 242.87616 242.87613c134.13681 0 242.87616 -108.73935 242.87616 -242.87613l0 0c0 -134.13681 -108.73935 -242.87616 -242.87616 -242.87616l0 0c-134.1368 0 -242.87616 108.73936 -242.87616 242.87616z" fill-rule="evenodd"/></g><path fill="#2196f3" d="m-112.38845 46.952755l53.41732 0l0 53.417324l-53.41732 0z" fill-rule="evenodd"/><path fill="#9c27b0" d="m-112.38845 114.703415l53.41732 0l0 53.417313l-53.41732 0z" fill-rule="evenodd"/><path fill="#009688" d="m-112.38845 182.45407l53.41732 0l0 53.417313l-53.41732 0z" fill-rule="evenodd"/><path fill="#ff5722" d="m-112.38845 250.20473l53.41732 0l0 53.417313l-53.41732 0z" fill-rule="evenodd"/><path fill="#4caf50" d="m-112.38845 317.95538l53.41732 0l0 53.417328l-53.41732 0z" fill-rule="evenodd"/></g></svg>