<svg version="1.1" viewBox="0.0 0.0 600.0 600.0" fill="none" stroke="none" stroke-linecap="square" stroke-miterlimit="10" xmlns:xlink="http://www.w3.org/1999/xlink" xmlns="http://www.w3.org/2000/svg"><clipPath id="p.0"><path d="m0 0l600.0 0l0 600.0l-600.0 0l0 -600.0z" clip-rule="nonzero"/></clipPath><g clip-path="url(#p.0)"><path fill="#000000" fill-opacity="0.0" d="m0 0l600.0 0l0 600.0l-600.0 0z" fill-rule="evenodd"/><path fill="#00bcd4" d="m13.016722 296.02676l0 0c0 -159.05801 128.94199 -288.0 288.0 -288.0l0 0c76.382355 0 149.63626 30.342772 203.64676 84.35325c54.010468 54.010468 84.35324 127.264404 84.35324 203.64676l0 0c0 159.05801 -128.94199 287.99997 -288.0 287.99997l0 0c-159.05801 0 -288.0 -128.94196 -288.0 -287.99997z" fill-rule="evenodd"/><g filter="url(#shadowFilter-p.1)"><use xlink:href="#p.1" transform="matrix(1.0 0.0 0.0 1.0 -2.671325984251978 13.74278083989495)"/></g><defs><filter id="shadowFilter-p.1" filterUnits="userSpaceOnUse"><feGaussianBlur in="SourceAlpha" stdDeviation="2.0" result="blur"/><feComponentTransfer in="blur" color-interpolation-filters="sRGB"><feFuncR type="linear" slope="0" intercept="0.0"/><feFuncG type="linear" slope="0" intercept="0.0"/><feFuncB type="linear" slope="0" intercept="0.0"/><feFuncA type="linear" slope="0.55" intercept="0"/></feComponentTransfer></filter></defs><g id="p.1"><path fill="#000000" fill-opacity="0.0" d="m-92.400604 190.60944l498.83466 -288.0l287.99997 498.83466l-498.83463 288.0z" fill-rule="evenodd"/><path fill="#ffffff" d="m223.97604 353.94003l-13.007721 -22.530243l-60.68956 35.03885l-21.50769 -37.252686l70.635345 -40.781006l-13.413986 -23.233887l-99.25483 57.30435l85.31199 147.76587l99.55252 -57.476196l-13.304596 -23.044464l-70.933044 40.95288l-24.077988 -41.70462l60.68956 -35.03885zm125.637054 -37.62442q2.2812195 3.9512634 2.5636597 8.190491q0.2824402 4.239197 -1.4184265 8.324463q-1.6930847 4.0987854 -5.3523254 7.979553q-3.6535034 3.859436 -9.3368225 7.1406555q-6.3869324 3.6874695 -12.538727 5.344757q-6.1517944 1.6572876 -11.657867 0.7767029q-5.614319 -0.8180542 -10.502319 -4.346863q-4.882263 -3.5501099 -8.952393 -10.1311035l-28.01059 16.171783q6.617157 11.461334 15.950317 17.439423q9.333191 5.9780884 20.58432 7.8719177q11.706024 1.7754822 24.424072 -1.164917q12.718048 -2.9404297 23.773438 -9.323212q11.271881 -6.5077515 19.257019 -14.7083435q7.9851685 -8.200592 11.839447 -17.46228q3.9089966 -9.166992 3.4467773 -18.967651q-0.45651245 -9.821991 -6.081482 -19.56482q-6.507782 -11.271881 -16.666931 -16.899384q-10.153442 -5.6488647 -22.631348 -7.105011q-8.059265 -0.61535645 -16.718231 0.32437134q-8.658966 0.9397278 -17.511658 3.2001343q-8.213501 2.1800537 -15.131714 3.1972961q-6.9182434 1.017273 -12.468964 0.5593872q-5.4746704 -0.3574524 -9.48822 -2.496643q-4.0213623 -2.1527405 -6.4198 -6.3069763q-2.289032 -3.9647827 -2.6802979 -8.267487q-0.37771606 -4.310486 1.1981812 -8.612244q1.6383972 -4.193512 5.2606506 -8.107071q3.6222534 -3.913559 9.3055725 -7.1947937q6.19751 -3.5780945 11.780548 -4.564209q5.575226 -0.99964905 10.431244 0.12994385q4.802429 1.2868347 8.77832 4.54834q3.9681091 3.2479858 7.0382385 8.096924l27.807587 -16.054596q-5.7421265 -9.9457855 -14.40332 -16.041214q-8.661194 -6.0954285 -19.077942 -8.200333q-10.354279 -1.9966431 -21.8779 0.20005798q-11.517914 2.175354 -23.087494 8.855011q-11.163635 6.4452667 -19.0316 14.848831q-7.875778 8.39003 -11.775818 17.82248q-3.894333 9.411118 -3.4607086 19.318497q0.4393463 9.886047 5.829941 19.2229q4.6874695 8.118988 11.662323 13.29361q6.9748535 5.174591 16.14235 7.4594727q9.167511 2.2848816 21.208038 1.70224q12.046234 -0.6040344 26.256958 -4.3340454q9.142578 -2.4458313 15.91156 -3.0341187q6.768982 -0.58825684 11.80661 0.4184265q5.0054016 1.1696472 8.364258 3.8311768q3.372406 2.6536865 5.6614685 6.618469zm123.81937 -106.39815l-13.007721 -22.530228l-60.689575 35.03885l-21.50769 -37.2527l70.635345 -40.781006l-13.413971 -23.233887l-99.25485 57.304337l85.31201 147.7659l99.55252 -57.476227l-13.304626 -23.044449l-70.933014 40.952896l-24.078003 -41.704636l60.689575 -35.03885z" fill-rule="nonzero"/></g><g filter="url(#shadowFilter-p.2)"><use xlink:href="#p.2" transform="matrix(1.0 0.0 0.0 1.0 0.0 11.0)"/></g><defs><filter id="shadowFilter-p.2" filterUnits="userSpaceOnUse"><feGaussianBlur in="SourceAlpha" stdDeviation="2.0" result="blur"/><feComponentTransfer in="blur" color-interpolation-filters="sRGB"><feFuncR type="linear" slope="0" intercept="0.0"/><feFuncG type="linear" slope="0" intercept="0.0"/><feFuncB type="linear" slope="0" intercept="0.0"/><feFuncA type="linear" slope="0.5" intercept="0"/></feComponentTransfer></filter></defs><g id="p.2"><path fill="#ffffff" d="m13.016722 296.02676l0 0c0 -159.05801 128.94199 -288.0 288.0 -288.0l0 0c76.382355 0 149.63626 30.342772 203.64676 84.35325c54.010468 54.010468 84.35324 127.264404 84.35324 203.64676l0 0c0 159.05801 -128.94199 287.99997 -288.0 287.99997l0 0c-159.05801 0 -288.0 -128.94196 -288.0 -287.99997zm45.12384 0l0 0c0 134.13678 108.739365 242.87613 242.87616 242.87613c134.13681 0 242.87616 -108.73935 242.87616 -242.87613l0 0c0 -134.13681 -108.73935 -242.87616 -242.87616 -242.87616l0 0c-134.1368 0 -242.87616 108.73936 -242.87616 242.87616z" fill-rule="evenodd"/></g><path fill="#2196f3" d="m-112.38845 46.952755l53.41732 0l0 53.417324l-53.41732 0z" fill-rule="evenodd"/><path fill="#9c27b0" d="m-112.38845 114.703415l53.41732 0l0 53.417313l-53.41732 0z" fill-rule="evenodd"/><path fill="#009688" d="m-112.38845 182.45407l53.41732 0l0 53.417313l-53.41732 0z" fill-rule="evenodd"/><path fill="#ff5722" d="m-112.38845 250.20473l53.41732 0l0 53.417313l-53.41732 0z" fill-rule="evenodd"/><path fill="#4caf50" d="m-112.38845 317.95538l53.41732 0l0 53.417328l-53.41732 0z" fill-rule="evenodd"/></g></svg>